<svg xmlns="http://www.w3.org/2000/svg" width="512" height="512" viewBox="0 0 512 512" fill="none">
  <!-- ELEV8 App Icon — 512x512 with background -->
  <rect width="512" height="512" rx="96" fill="#0E0E10"/>
  <path d="M200 56 C296 56,328 80,328 152 C328 200,296 220,248 228 C308 236,352 260,352 340 C352 420,296 448,200 448 C104 448,48 420,48 340 C48 260,92 236,152 228 C104 220,72 200,72 152 C72 80,104 56,200 56Z" stroke="#FF6B35" stroke-width="28" fill="none"/>
  <line x1="420" y1="420" x2="420" y2="100" stroke="#FF6B35" stroke-width="26" stroke-linecap="round"/>
  <polyline points="360,176 420,80 480,176" fill="none" stroke="#FF6B35" stroke-width="26" stroke-linecap="round" stroke-linejoin="round"/>
</svg>
