<svg xmlns="http://www.w3.org/2000/svg" width="540" height="130" viewBox="0 0 540 130" fill="none">
  <text x="20" y="96" style="font-family:'Syne',sans-serif;font-weight:800;font-size:90px;fill:#F5F3EE;letter-spacing:-4px">ELEV</text>
  <path d="M270 18 C290 18,296 24,296 38 C296 48,290 52,278 54 C292 56,300 62,300 74 C300 86,290 92,270 92 C250 92,240 86,240 74 C240 62,248 56,262 54 C250 52,244 48,244 38 C244 24,250 18,270 18Z" stroke="#FF6B35" stroke-width="4.5" fill="none"/>
  <line x1="318" y1="90" x2="318" y2="24" stroke="#FF6B35" stroke-width="4" stroke-linecap="round"/>
  <polyline points="306,40 318,22 330,40" fill="none" stroke="#FF6B35" stroke-width="4" stroke-linecap="round" stroke-linejoin="round"/>
</svg>
